<svg id="LOGO_BCI" data-name="LOGO BCI" xmlns="http://www.w3.org/2000/svg" width="599.979" height="135.359" viewBox="0 0 1290 291.031">
  <defs>
    <style>
      .cls-1 {
        fill: #36332c;
      }

      .cls-1, .cls-2, .cls-3, .cls-4, .cls-5 {
        fill-rule: evenodd;
      }

      .cls-2 {
        fill: #f7d500;
      }

      .cls-3 {
        fill: #d12c3a;
      }

      .cls-4 {
        fill: #389946;
      }

      .cls-5 {
        fill: #2f72cb;
      }
    </style>
  </defs>
  <path id="BCI" class="cls-1" d="M623.955,68.91c0-11.312,8.094-20.53,18.056-20.53s18.042,9.217,18.042,20.53c0,11.3-8.08,20.485-18.042,20.485s-18.056-9.187-18.056-20.485m-322.5,62.747c-4.2,0-6.243,1.691-6.243,5.028v80.5c0,19.691,13.315,29.545,40.078,29.545q31.879,0,48.554-17.814,14.753-15.733,14.719-42.024,0-25.689-17.153-40.476c-11.433-9.883-27.832-14.761-49.271-14.761H301.451Zm81.687-9.891q64.934,10.717,64.923,67.3c0.03,21.652-8.55,38.971-25.733,52.139q-25.719,19.672-66.782,19.624c-10.007,0-85.713.389-105.651,0.389V8.442c13.285,0,45.343,1.272,62.541,1.085,92.44-1.085,119.271,20.163,119.271,60.406q0,37.808-48.569,51.832m-87.93-14.761c0,5.656.747,9.045,2.248,10.272,1.546,1.227,5.892,1.811,12.978,1.811h6.549q67.209,0,67.223-46.76,0-49.861-60.472-49.872c-10.85,0-18.056,1.025-21.805,3.112-4.5,2.544-6.721,7.833-6.721,15.9v65.539Zm257.878-8.286a119.03,119.03,0,0,1,33.178,4.474c14.031,3.988,21.066,9.6,21.066,16.946q0,28.392-12.605,28.408c-4.1,0-8.252-3.375-12.546-10.288-0.478-.785-1.247-2.132-2.285-4.092q-15.312-26.451-31.58-26.418-24.631,0-38.622,26.628a90.226,90.226,0,0,0-10.5,41.9q0,26.967,13.926,45.885,17.329,23.544,50.772,23.537c6.407,0,15.144-2.469,26.256-7.317,11.142-4.893,15.958-7.362,14.427-7.362,4.107,0,6.183,1.549,6.139,4.6q0,11.772-25.8,21.263c-14.793,5.581-28.033,8.327-39.8,8.327q-42.509,0-66.319-26.1-20.856-22.647-20.842-55.865,0-35.092,23.583-58.469,26.054-26.08,71.554-26.066m70.854,162.4h37.308L660.926,108.76s-6.705-.134-17.81-1.01c-8.079-.628-19.176-1.257-19.176-1.257v154.63Z"/>
  <path id="SEGUROS" class="cls-1" d="M777.578,225.01c-0.448,22,15.391,28.744,34.806,28.744,11.2,0,28.235-6.142,28.235-21.7,0-12.127-12.105-16.916-21.962-19.317L794.9,206.905c-12.546-3.143-24.046-9.135-24.046-25.745,0-10.481,6.721-30.076,36.748-30.076,21.058,0,39.585,11.372,39.436,33.219H836.878c-0.6-16.31-14.039-24.54-29.124-24.54-13.9,0-26.741,5.379-26.741,21.248,0,10.025,7.468,14.222,16.138,16.325l25.987,6.426c15.091,4.033,27.637,10.624,27.637,28.131,0,7.332-2.987,30.54-40.78,30.54-25.248,0-43.775-11.387-42.573-37.423h10.156Zm142.491-8.829c-0.448-14.215-9.267-27.54-24.5-27.54-15.391,0-23.9,13.475-25.4,27.54h49.9Zm-49.9,7.938c0.149,13.766,7.318,30.383,25.4,30.383,13.74,0,21.208-8.088,24.2-19.759h9.409c-4.04,17.507-14.195,27.689-33.611,27.689-24.5,0-34.806-18.861-34.806-40.857,0-20.357,10.305-40.857,34.806-40.857,24.792,0,34.657,21.7,33.91,43.4H870.171Zm128.007-3.445c0-15.113-7.019-32.036-24.8-32.036-17.922,0-25.39,16.018-25.39,32.036,0,15.561,8.065,30.682,25.39,30.682,16.287,0,24.8-14.963,24.8-30.682m9.412,33.226c-0.15,23.043-8.963,37.116-34.211,37.116-15.383,0-30.624-6.883-31.969-23.35h9.409c2.1,11.379,12.105,15.412,22.56,15.412,17.332,0,24.8-10.317,24.8-29.178V243.425h-0.3a26.735,26.735,0,0,1-24.5,15.869c-24.643,0-34.806-17.672-34.806-39.66,0-21.263,12.545-38.912,34.806-38.912,11.2,0,20.767,7.025,24.5,15.562h0.3V182.959h9.412V253.9Zm79.75,6.283h-8.66V246.274h-0.3c-4.93,10.317-15.09,16.161-26.59,16.161-19.42,0-27.04-11.387-27.04-29.343V182.957h9.4v50.292c0.45,13.916,5.69,21.248,20.62,21.248,16.14,0,23.16-15.27,23.16-30.974V182.957h9.41v77.226Zm17.31-77.228h8.66v18.121h0.3c4.79-12.435,15.24-19.759,29.14-19.161v9.427c-17.04-.905-28.68,11.679-28.68,27.69V260.18h-9.42V182.955Zm50.33,38.621c0,16.452,8.96,32.919,27.04,32.919s27.04-16.467,27.04-32.919-8.97-32.934-27.04-32.934-27.04,16.467-27.04,32.934m63.49,0c0,22.153-12.85,40.857-36.45,40.857s-36.45-18.7-36.45-40.857,12.85-40.857,36.45-40.857,36.45,18.7,36.45,40.857m59.44-16.015c-0.46-11.679-9.42-16.923-20.17-16.923-8.37,0-18.23,3.306-18.23,13.332,0,8.387,9.56,11.364,15.99,13.018l12.55,2.85c10.75,1.631,21.95,7.931,21.95,21.39,0,16.759-16.58,23.208-30.92,23.208-17.92,0-30.18-8.394-31.67-27.24h9.42c0.74,12.711,10.15,19.3,22.7,19.3,8.82,0,21.06-3.89,21.06-14.671,0-8.971-8.37-11.971-16.87-14.058l-12.11-2.7c-12.24-3.292-21.5-7.482-21.5-20.649,0-15.719,15.38-21.7,28.97-21.7,15.39,0,27.64,8.08,28.24,24.839h-9.41Z"/>
  <path id="formas_-_2_-_Amarilla" data-name="formas - 2 - Amarilla" class="cls-2" d="M48.08,255.234s-5.175-4.137.859-17.941c8.095-18.7,26.913-34.258,26.913-34.258s44.469-27.921,55.461-31.782c11.119-3.823,17.885.629,17.885,0.629s16.742,11.492,17.7,36.473c0.919,24.891-16.346,33.974-16.346,33.974s-16.19,12.1-57.2,15.786c-20.013,3.546-31.214,3.434-37.472,2.117-7.7-1.593-7.8-5-7.8-5"/>
  <path id="formas_-_3_-_roja" data-name="formas - 3 - roja" class="cls-3" d="M1.743,226.331c6.5-19.318,23.119-32.059,23.119-32.059s13.3-9.719,21.992-15.652c8.812-5.977,22.313-14.566,22.313-14.566s28.548-16.968,35.134-21.51l0.12-.075c4.055,0.763,8.461,1.377,12.851,1.751,0,0,12.135.629,15.354-6.225,3.375-6.9-6.617-8.574-6.617-8.574l-2.307-.471a160.976,160.976,0,0,0,12.628-10.01c13.463-11.567,24.493-37.61,24.493-37.61l10.5-24.592s7.617-15.12,22.508-12.554c19.437,3.337,18.2,24.39,18.2,24.39-4.608,33.391-30.819,53.7-40.019,59.427-14.584,9.12-69.716,41.126-69.716,41.126s-30.1,19.258-49.2,39.189C33.876,227.984,31.554,236.6,26,247.3c-5.742,10.811-6.332,12.771-13.621,13.369H11.966c-7.206,0-15.674-14.851-10.223-34.34"/>
  <path id="formas_-_4_-_verde" data-name="formas - 4 - verde" class="cls-4" d="M185.879,233.607c-7.012-5.461-4.914-14.993-4.914-14.993a89.243,89.243,0,0,0-1.433-18.517,74.419,74.419,0,0,0-4.391-15.427s-1.135-5.6-9.417-10.564c-8.259-4.893-16.354-6.284-18.176-12.494-1.837-6.24,2.248-10.931,8.551-13.2,6.227-2.1,17.937-3.344,29.593,5.544S203.353,183.5,203.353,183.5s6.639,17.066,7.072,24.809c0,0,3.4,11.05-3.293,19.452,0,0-5.228,6.165-11.687,7.789a10.832,10.832,0,0,1-9.566-1.946"/>
  <path id="formas_-_1_-azul" data-name="formas - 1 -azul" class="cls-5" d="M127.028,152.479c-2.628-1.04-5.249-2.177-7.788-3.314-20.8-9.382-30.311-17.3-30.311-17.3s-29.721-20.47-36.636-52.4c-7.512-25.205,8.565-61.282,8.565-61.282S66.25-5.233,92.289,1.066C118.321,7.231,106.754,32.8,106.754,32.8c-3.6,7.6-11.007,47.374-11.007,47.374-2.554,38.792,28.264,47.83,28.264,47.83l17.691,8.327s10.454,5.072,4.421,12.741c-5.093,6.576-15.391,4.369-18.281,3.561-0.448-.1-0.814-0.157-0.814-0.157"/>
</svg>
